HIERARCHY
ROOT hips
{
	OFFSET -0.003675 0.299928 -0.021708
	CHANNELS 6 Xposition Yposition Zposition Xrotation Yrotation Zrotation
	JOINT LowerBack
	{
		OFFSET 0.000919 0.177588 0.009275
		CHANNELS 3 Xrotation Yrotation Zrotation
		JOINT spine
		{
			OFFSET 0.000919 0.177588 0.009275
			CHANNELS 3 Xrotation Yrotation Zrotation
			JOINT chest
			{
				OFFSET 0.000456 0.100015 0.004638
				CHANNELS 3 Xrotation Yrotation Zrotation
				JOINT neck
				{
					OFFSET 0.000456 0.100015 0.004638
					CHANNELS 3 Xrotation Yrotation Zrotation
					JOINT head
					{
						OFFSET 0.000924 0.155147 0.009274
						CHANNELS 6 Xposition Yposition Zposition Xrotation Yrotation Zrotation
						End Site
						{
							OFFSET 0.000000 0.153400 0.000000
						}
					}
				}
				JOINT shoulder.L
				{
					OFFSET 0.019937 0.078966 0.057518
					CHANNELS 6 Xposition Yposition Zposition Yrotation Xrotation Zrotation
					JOINT upper_arm.L
					{
						OFFSET 0.177024 -0.020465 -0.095062
						CHANNELS 6 Xposition Yposition Zposition Xrotation Yrotation Zrotation
						JOINT forearm.L
						{
							OFFSET 0.247100 -0.135500 -0.061800
							CHANNELS 3 Xrotation Yrotation Zrotation
							JOINT hand.L
							{
								OFFSET 0.217000 -0.143000 0.039300
								CHANNELS 3 Xrotation Yrotation Zrotation
								JOINT palm.01.L
								{
									OFFSET 0.021770 -0.038291 0.012954
									CHANNELS 6 Xposition Yposition Zposition Yrotation Xrotation Zrotation
									JOINT f_index.01.L
									{
										OFFSET 0.053215 -0.044137 0.008236
										CHANNELS 3 Xrotation Yrotation Zrotation
										JOINT f_index.02.L
										{
											OFFSET 0.036108 -0.024723 -0.010656
											CHANNELS 3 Xrotation Yrotation Zrotation
											JOINT f_index.03.L
											{
												OFFSET 0.021342 -0.014948 -0.010846
												CHANNELS 3 Xrotation Yrotation Zrotation
												End Site
												{
													OFFSET 0.015600 -0.009860 -0.013421
												}
											}
										}
									}
									JOINT thumb.01.L
									{
										OFFSET -0.009090 -0.002348 -0.024223
										CHANNELS 6 Xposition Yposition Zposition Xrotation Yrotation Zrotation
										JOINT thumb.02.L
										{
											OFFSET 0.019713 -0.035076 -0.011120
											CHANNELS 3 Xrotation Yrotation Zrotation
											JOINT thumb.03.L
											{
												OFFSET 0.024877 -0.021748 -0.005176
												CHANNELS 3 Xrotation Yrotation Zrotation
												End Site
												{
													OFFSET 0.016125 -0.013029 -0.001569
												}
											}
										}
									}
								}
								JOINT palm.02.L
								{
									OFFSET 0.032823 -0.025104 0.012281
									CHANNELS 6 Xposition Yposition Zposition Yrotation Xrotation Zrotation
									JOINT f_middle.01.L
									{
										OFFSET 0.055723 -0.038469 0.008037
										CHANNELS 3 Xrotation Yrotation Zrotation
										JOINT f_middle.02.L
										{
											OFFSET 0.038167 -0.027473 -0.015582
											CHANNELS 3 Xrotation Yrotation Zrotation
											JOINT f_middle.03.L
											{
												OFFSET 0.021707 -0.016587 -0.017037
												CHANNELS 3 Xrotation Yrotation Zrotation
												End Site
												{
													OFFSET 0.014112 -0.010584 -0.014294
												}
											}
										}
									}
								}
								JOINT palm.03.L
								{
									OFFSET 0.039230 -0.011402 0.008390
									CHANNELS 6 Xposition Yposition Zposition Yrotation Xrotation Zrotation
									JOINT f_ring.01.L
									{
										OFFSET 0.061796 -0.031470 0.007910
										CHANNELS 3 Xrotation Yrotation Zrotation
										JOINT f_ring.02.L
										{
											OFFSET 0.033092 -0.023401 -0.019127
											CHANNELS 3 Xrotation Yrotation Zrotation
											JOINT f_ring.03.L
											{
												OFFSET 0.021392 -0.015362 -0.017824
												CHANNELS 3 Xrotation Yrotation Zrotation
												End Site
												{
													OFFSET 0.008670 -0.007297 -0.014686
												}
											}
										}
									}
								}
								JOINT palm.04.L
								{
									OFFSET 0.043417 0.002450 0.002889
									CHANNELS 6 Xposition Yposition Zposition Yrotation Xrotation Zrotation
									JOINT f_pinky.01.L
									{
										OFFSET 0.069986 -0.026156 0.003627
										CHANNELS 3 Xrotation Yrotation Zrotation
										JOINT f_pinky.02.L
										{
											OFFSET 0.018520 -0.012813 -0.016429
											CHANNELS 3 Xrotation Yrotation Zrotation
											JOINT f_pinky.03.L
											{
												OFFSET 0.013822 -0.009796 -0.014947
												CHANNELS 3 Xrotation Yrotation Zrotation
												End Site
												{
													OFFSET 0.007238 -0.006103 -0.011657
												}
											}
										}
									}
								}
							}
						}
					}
				}
				JOINT shoulder.R
				{
					OFFSET -0.016662 0.078957 0.057696
					CHANNELS 6 Xposition Yposition Zposition Yrotation Xrotation Zrotation
					JOINT upper_arm.R
					{
						OFFSET -0.176972 -0.020537 -0.095144
						CHANNELS 6 Xposition Yposition Zposition Xrotation Yrotation Zrotation
						JOINT forearm.R
						{
							OFFSET -0.247100 -0.135500 -0.061800
							CHANNELS 3 Xrotation Yrotation Zrotation
							JOINT hand.R
							{
								OFFSET -0.217000 -0.143000 0.039300
								CHANNELS 3 Xrotation Yrotation Zrotation
								JOINT palm.01.R
								{
									OFFSET -0.021773 -0.038278 0.012988
									CHANNELS 6 Xposition Yposition Zposition Yrotation Xrotation Zrotation
									JOINT f_index.01.R
									{
										OFFSET -0.053212 -0.044139 0.008249
										CHANNELS 3 Xrotation Yrotation Zrotation
										JOINT f_index.02.R
										{
											OFFSET -0.036049 -0.024835 -0.010634
											CHANNELS 3 Xrotation Yrotation Zrotation
											JOINT f_index.03.R
											{
												OFFSET -0.021371 -0.014881 -0.010866
												CHANNELS 3 Xrotation Yrotation Zrotation
												End Site
												{
													OFFSET -0.015584 -0.009883 -0.013422
												}
											}
										}
									}
									JOINT thumb.01.R
									{
										OFFSET 0.009113 -0.002381 -0.024211
										CHANNELS 6 Xposition Yposition Zposition Xrotation Yrotation Zrotation
										JOINT thumb.02.R
										{
											OFFSET -0.019694 -0.035097 -0.011088
											CHANNELS 3 Xrotation Yrotation Zrotation
											JOINT thumb.03.R
											{
												OFFSET -0.024867 -0.021762 -0.005168
												CHANNELS 3 Xrotation Yrotation Zrotation
												End Site
												{
													OFFSET -0.016120 -0.013036 -0.001565
												}
											}
										}
									}
								}
								JOINT palm.02.R
								{
									OFFSET -0.032828 -0.025095 0.012286
									CHANNELS 6 Xposition Yposition Zposition Yrotation Xrotation Zrotation
									JOINT f_middle.01.R
									{
										OFFSET -0.055721 -0.038472 0.008040
										CHANNELS 3 Xrotation Yrotation Zrotation
										JOINT f_middle.02.R
										{
											OFFSET -0.038101 -0.027593 -0.015557
											CHANNELS 3 Xrotation Yrotation Zrotation
											JOINT f_middle.03.R
											{
												OFFSET -0.021730 -0.016530 -0.017054
												CHANNELS 3 Xrotation Yrotation Zrotation
												End Site
												{
													OFFSET -0.014096 -0.010608 -0.014293
												}
											}
										}
									}
								}
								JOINT palm.03.R
								{
									OFFSET -0.039192 -0.011488 0.008390
									CHANNELS 6 Xposition Yposition Zposition Yrotation Xrotation Zrotation
									JOINT f_ring.01.R
									{
										OFFSET -0.061839 -0.031387 0.007876
										CHANNELS 3 Xrotation Yrotation Zrotation
										JOINT f_ring.02.R
										{
											OFFSET -0.033068 -0.023437 -0.019125
											CHANNELS 3 Xrotation Yrotation Zrotation
											JOINT f_ring.03.R
											{
												OFFSET -0.021371 -0.015393 -0.017822
												CHANNELS 3 Xrotation Yrotation Zrotation
												End Site
												{
													OFFSET -0.008654 -0.007321 -0.014684
												}
											}
										}
									}
								}
								JOINT palm.04.R
								{
									OFFSET -0.043421 0.002443 0.002845
									CHANNELS 6 Xposition Yposition Zposition Yrotation Xrotation Zrotation
									JOINT f_pinky.01.R
									{
										OFFSET -0.069983 -0.026169 0.003599
										CHANNELS 3 Xrotation Yrotation Zrotation
										JOINT f_pinky.02.R
										{
											OFFSET -0.018501 -0.012842 -0.016428
											CHANNELS 3 Xrotation Yrotation Zrotation
											JOINT f_pinky.03.R
											{
												OFFSET -0.013806 -0.009821 -0.014946
												CHANNELS 3 Xrotation Yrotation Zrotation
												End Site
												{
													OFFSET -0.007226 -0.006121 -0.011655
												}
											}
										}
									}
								}
							}
						}
					}
				}
			}
		}
	}
	JOINT pelvis.L
	{
		OFFSET 0.000000 0.000000 0.000000
		CHANNELS 6 Xposition Yposition Zposition Xrotation Yrotation Zrotation
		JOINT thigh.L
		{
			OFFSET 0.101675 0.001054 -0.000000
			CHANNELS 3 Xrotation Yrotation Zrotation
			JOINT shin.L
			{
				OFFSET 0.000000 -0.534800 0.041000
				CHANNELS 3 Xrotation Yrotation Zrotation
				JOINT foot.L
				{
					OFFSET 0.000000 -0.452000 -0.044800
					CHANNELS 3 Xrotation Yrotation Zrotation
					JOINT toe.L
					{
						OFFSET -0.000000 -0.068500 0.109600
						CHANNELS 3 Xrotation Yrotation Zrotation
						End Site
						{
							OFFSET -0.000000 0.000000 0.067200
						}
					}
				}
				JOINT heel.L
				{
					OFFSET 0.000000 -0.452000 -0.044800
					CHANNELS 3 Xrotation Yrotation Zrotation
					JOINT heel.02.L
					{
						OFFSET -0.038000 -0.085200 0.016200
						CHANNELS 6 Xposition Yposition Zposition Xrotation Yrotation Zrotation
						End Site
						{
							OFFSET 0.080000 -0.000000 0.000000
						}
					}
				}
			}
		}
	}
	JOINT pelvis.R
	{
		OFFSET 0.000000 0.000000 0.000000
		CHANNELS 6 Xposition Yposition Zposition Xrotation Yrotation Zrotation
		JOINT thigh.R
		{
			OFFSET -0.094325 0.001054 0.000000
			CHANNELS 3 Xrotation Yrotation Zrotation
			JOINT shin.R
			{
				OFFSET 0.000000 -0.534800 0.041000
				CHANNELS 3 Xrotation Yrotation Zrotation
				JOINT foot.R
				{
					OFFSET 0.000000 -0.452000 -0.044800
					CHANNELS 3 Xrotation Yrotation Zrotation
					JOINT toe.R
					{
						OFFSET -0.000000 -0.068500 0.109600
						CHANNELS 3 Xrotation Yrotation Zrotation
						End Site
						{
							OFFSET -0.000000 0.000000 0.067200
						}
					}
				}
				JOINT heel.R
				{
					OFFSET 0.000000 -0.452000 -0.044800
					CHANNELS 3 Xrotation Yrotation Zrotation
					JOINT heel.02.R
					{
						OFFSET 0.038000 -0.085200 0.016200
						CHANNELS 6 Xposition Yposition Zposition Xrotation Yrotation Zrotation
						End Site
						{
							OFFSET -0.080000 0.000000 -0.000000
						}
					}
				}
			}
		}
	}
}
MOTION
Frames: 4
Frame Time: 0.041667
-0.003675 0.299928 -0.021708 0.000000 -0.000000 0.000000 -0.000001 0.000000 0.000000 -0.000000 0.000000 0.000000 -0.000000 0.000000 0.000000 -0.000000 -0.000000 -0.000000 0.000924 0.155147 0.009274 -0.000001 -0.000000 -0.000000 0.019937 0.078966 0.057518 0.000001 0.000001 -0.000005 0.177024 -0.020465 -0.095062 -0.000006 -0.000003 0.000015 -0.000009 -0.000004 -0.000009 -0.000000 0.000000 0.000001 0.021770 -0.038291 0.012954 0.000001 -0.000001 0.000001 -0.000001 -0.000001 -0.000002 -0.000001 -0.000000 0.000007 -0.000000 0.000000 0.000003 -0.009090 -0.002348 -0.024224 -0.000002 0.000001 0.000001 0.000001 -0.000001 0.000001 -0.000000 0.000000 -0.000001 0.032823 -0.025104 0.012281 0.000000 -0.000000 0.000000 0.000001 0.000004 -0.000003 -0.000001 -0.000000 -0.000000 -0.000001 -0.000003 0.000003 0.039230 -0.011402 0.008390 -0.000000 -0.000000 0.000008 0.000001 0.000001 -0.000000 -0.000001 0.000003 -0.000001 0.000002 0.000002 -0.000000 0.043417 0.002450 0.002889 -0.000000 0.000001 0.000002 -0.000001 -0.000003 0.000001 -0.000000 0.000003 -0.000000 -0.000000 -0.000003 0.000001 -0.016662 0.078956 0.057696 -0.000001 0.000002 0.000011 -0.176972 -0.020537 -0.095144 0.000001 -0.000003 -0.000005 -0.000006 0.000005 -0.000014 -0.000001 -0.000000 0.000000 -0.021773 -0.038278 0.012988 0.000000 -0.000001 -0.000003 -0.000001 0.000001 -0.000003 -0.000001 -0.000000 0.000001 0.000001 0.000002 0.000007 0.009113 -0.002381 -0.024211 0.000002 -0.000001 0.000004 -0.000000 0.000001 0.000002 0.000000 0.000000 -0.000003 -0.032828 -0.025095 0.012286 0.000001 -0.000001 -0.000001 -0.000001 0.000003 -0.000003 -0.000002 0.000004 -0.000001 0.000001 -0.000002 -0.000000 -0.039192 -0.011488 0.008390 0.000000 0.000000 0.000001 -0.000000 0.000003 -0.000003 -0.000001 0.000001 0.000002 -0.000001 0.000000 -0.000003 -0.043421 0.002443 0.002844 -0.000000 -0.000001 0.000000 -0.000007 0.000003 -0.000002 -0.000003 -0.000000 -0.000000 0.000001 -0.000000 0.000001 -0.000000 0.000000 -0.000000 -0.000001 -0.000000 0.000001 0.000009 -0.000202 0.000014 -0.000026 0.000202 -0.000015 0.000000 -0.000000 -0.000000 0.000002 -0.000000 -0.000000 0.000000 0.000000 -0.000000 -0.038000 -0.085200 0.016200 0.000000 0.000000 0.000000 0.000000 -0.000000 -0.000000 -0.000001 0.000000 -0.000004 0.000008 -0.000013 0.000005 -0.000012 0.000013 -0.000001 -0.000003 -0.000000 -0.000000 0.000000 -0.000000 -0.000000 0.000002 -0.000000 -0.000000 0.038000 -0.085200 0.016200 0.000002 -0.000000 0.000000 
-0.002278 0.267529 -0.018823 11.304666 -165.808060 13.966690 -0.000000 0.000001 -0.000000 -0.000001 0.000000 -0.000001 0.000001 -0.000001 -0.000001 0.000001 0.000001 -0.000001 0.000924 0.155148 0.009274 -3.436413 0.014170 1.082430 0.019937 0.078966 0.057518 -4.419395 9.337699 56.488489 0.177024 -0.020465 -0.095062 -11.075709 -51.121326 18.244397 -2.370754 15.811166 51.540208 -0.000003 0.000001 -0.000001 0.021770 -0.038291 0.012954 0.000001 0.000004 0.000001 -0.000003 -0.000001 -0.000000 -0.000001 -0.000002 0.000006 0.000003 0.000000 -0.000001 -0.009090 -0.002348 -0.024224 0.000001 -0.000003 0.000001 0.000001 -0.000000 0.000001 0.000002 -0.000000 -0.000004 0.032823 -0.025104 0.012281 -0.000000 -0.000000 0.000004 0.000001 0.000003 -0.000003 -0.000001 -0.000001 0.000005 0.000001 0.000002 0.000002 0.039230 -0.011402 0.008390 -0.000003 0.000001 0.000004 0.000004 -0.000003 0.000003 0.000001 0.000004 0.000003 0.000003 0.000002 0.000002 0.043417 0.002450 0.002889 0.000000 0.000003 0.000002 0.000002 -0.000005 -0.000005 0.000000 0.000000 0.000001 0.000002 -0.000001 -0.000001 -0.016662 0.078957 0.057696 -5.466829 8.162708 -43.660413 -0.176972 -0.020537 -0.095144 -65.389601 28.222955 30.664688 14.224710 34.336382 -59.513043 0.000001 0.000003 0.000001 -0.021773 -0.038278 0.012988 -0.000000 -0.000002 -0.000002 -0.000003 0.000004 0.000002 -0.000001 -0.000002 -0.000001 0.000002 -0.000002 0.000003 0.009114 -0.002381 -0.024211 -0.000000 -0.000002 0.000002 -0.000000 -0.000002 -0.000005 0.000000 -0.000001 -0.000004 -0.032828 -0.025095 0.012286 0.000001 -0.000000 -0.000003 0.000001 0.000002 0.000004 -0.000000 0.000003 -0.000000 -0.000001 0.000003 -0.000002 -0.039192 -0.011488 0.008390 0.000000 0.000002 -0.000002 -0.000001 0.000005 -0.000003 0.000001 0.000002 0.000004 -0.000002 0.000001 -0.000001 -0.043421 0.002443 0.002845 -0.000000 0.000000 -0.000001 -0.000003 0.000004 0.000001 -0.000001 -0.000006 0.000000 -0.000003 0.000011 -0.000001 -0.000000 0.000000 -0.000000 -1.496794 0.475087 -7.048456 -12.972670 0.274397 4.439068 58.484950 0.394324 -3.979638 -0.000003 0.000002 0.000000 -0.000003 0.000000 -0.000001 0.000003 0.000001 -0.000001 -0.038000 -0.085200 0.016200 -0.000000 -0.000001 0.000002 -0.000000 0.000000 -0.000000 -1.450157 0.469814 -5.814640 15.883050 -0.197076 -1.895621 46.986309 1.667561 -17.080263 0.000003 0.000001 -0.000002 0.000002 0.000002 -0.000003 0.000002 0.000001 -0.000001 0.038000 -0.085200 0.016200 0.000000 0.000000 0.000002 
-0.002489 0.266879 -0.019396 10.569567 -169.421312 11.788752 -0.000001 -0.000001 -0.000002 -0.000001 -0.000001 -0.000001 -0.000002 -0.000000 -0.000001 -0.000001 0.000000 0.000000 0.000924 0.155148 0.009274 -2.774678 0.012419 1.340849 0.019937 0.078966 0.057518 -5.382684 9.425951 56.833044 0.177024 -0.020466 -0.095062 -18.161891 -53.471184 12.042858 -1.664944 14.628472 49.620529 -0.000001 0.000000 -0.000001 0.021770 -0.038291 0.012954 0.000004 -0.000001 0.000001 -0.000004 0.000000 -0.000000 -0.000002 0.000005 0.000004 -0.000001 0.000002 0.000002 -0.009090 -0.002348 -0.024224 0.000001 0.000001 -0.000000 0.000001 -0.000001 -0.000002 0.000001 0.000003 -0.000002 0.032823 -0.025104 0.012281 0.000001 -0.000002 0.000007 0.000001 0.000001 -0.000005 0.000002 -0.000001 -0.000000 -0.000000 -0.000003 0.000003 0.039230 -0.011402 0.008390 0.000003 -0.000003 0.000004 0.000002 0.000000 -0.000002 0.000002 0.000003 -0.000001 0.000004 0.000003 0.000001 0.043417 0.002450 0.002889 0.000005 0.000003 0.000002 -0.000007 -0.000003 -0.000000 0.000004 -0.000002 -0.000003 -0.000000 -0.000003 -0.000001 -0.016662 0.078957 0.057696 -6.869698 8.616774 -45.094241 -0.176972 -0.020537 -0.095144 -69.228680 32.151066 31.569756 15.343714 32.449983 -61.528448 0.000000 0.000001 -0.000000 -0.021773 -0.038278 0.012988 -0.000002 -0.000001 0.000004 -0.000003 0.000003 -0.000001 -0.000002 0.000001 -0.000004 -0.000002 -0.000002 0.000001 0.009113 -0.002381 -0.024212 -0.000000 -0.000001 -0.000001 -0.000001 -0.000001 -0.000001 0.000001 0.000000 0.000003 -0.032828 -0.025095 0.012286 0.000001 0.000000 0.000002 0.000000 0.000003 -0.000001 0.000001 0.000001 0.000001 -0.000002 0.000003 -0.000004 -0.039192 -0.011488 0.008390 -0.000001 0.000003 -0.000000 -0.000001 0.000001 -0.000002 -0.000001 -0.000001 -0.000002 0.000000 -0.000002 0.000003 -0.043421 0.002443 0.002845 -0.000002 0.000002 -0.000001 -0.000004 0.000002 -0.000001 -0.000001 -0.000002 -0.000001 -0.000002 0.000003 -0.000001 0.000000 0.000000 -0.000000 -1.486637 0.439533 -6.614105 -12.032224 0.202029 3.440695 57.473221 0.264078 -2.663229 0.000000 0.000001 0.000000 -0.000011 -0.000002 -0.000000 0.000000 0.000001 0.000000 -0.038000 -0.085200 0.016200 -0.000001 0.000000 0.000001 0.000000 0.000000 -0.000000 -1.441360 0.434751 -5.380265 17.135532 -0.080120 -0.300894 45.426051 1.692992 -17.349253 -0.000003 0.000001 -0.000001 0.000002 0.000000 -0.000001 0.000002 -0.000002 0.000001 0.038000 -0.085200 0.016200 -0.000004 -0.000000 -0.000001 
-0.001601 0.269443 -0.018285 11.814328 -163.755875 16.994288 -0.000000 -0.000001 -0.000001 -0.000001 -0.000002 -0.000000 0.000000 0.000002 0.000000 0.000001 0.000000 0.000000 0.000924 0.155148 0.009274 -4.611331 0.017032 2.098542 0.019937 0.078966 0.057518 -2.884272 9.390948 56.140234 0.177024 -0.020465 -0.095062 -6.924534 -49.099648 21.850294 -1.609743 14.196520 49.121310 -0.000003 0.000000 -0.000002 0.021770 -0.038291 0.012954 -0.000003 -0.000001 -0.000002 -0.000000 -0.000001 -0.000000 -0.000000 -0.000002 0.000010 -0.000003 0.000001 -0.000002 -0.009090 -0.002348 -0.024224 -0.000001 -0.000003 0.000002 -0.000000 0.000001 0.000001 0.000003 0.000003 -0.000002 0.032823 -0.025104 0.012281 -0.000003 0.000002 0.000002 -0.000001 -0.000001 -0.000005 -0.000003 -0.000002 0.000001 0.000003 0.000005 0.000001 0.039230 -0.011402 0.008390 -0.000004 0.000001 0.000001 0.000002 0.000003 -0.000002 0.000001 0.000008 0.000001 0.000004 -0.000005 -0.000001 0.043417 0.002450 0.002889 -0.000003 -0.000001 -0.000005 -0.000003 -0.000005 -0.000000 0.000000 0.000003 0.000001 -0.000002 -0.000005 0.000000 -0.016662 0.078956 0.057696 -3.167136 7.869775 -42.993978 -0.176972 -0.020537 -0.095144 -66.021647 23.083454 32.338347 10.641620 42.533562 -53.281732 0.000003 -0.000000 -0.000001 -0.021773 -0.038278 0.012988 -0.000001 -0.000005 0.000000 -0.000004 0.000004 -0.000003 0.000004 0.000001 -0.000004 0.000004 0.000000 0.000003 0.009114 -0.002381 -0.024211 -0.000001 0.000000 -0.000001 -0.000001 0.000001 0.000002 0.000000 -0.000001 -0.000003 -0.032828 -0.025095 0.012286 0.000000 -0.000002 -0.000001 -0.000001 0.000005 -0.000003 -0.000001 -0.000003 0.000001 -0.000002 0.000001 -0.000000 -0.039192 -0.011488 0.008390 0.000000 -0.000004 0.000001 -0.000000 0.000003 -0.000003 -0.000001 -0.000005 0.000003 -0.000004 0.000000 -0.000003 -0.043421 0.002443 0.002845 -0.000000 -0.000001 0.000000 -0.000005 0.000003 0.000001 -0.000003 -0.000001 0.000002 -0.000002 0.000001 -0.000000 -0.000000 0.000000 -0.000000 -1.484214 0.522417 -7.662896 -14.104979 0.251501 4.194237 58.142580 0.344269 -3.473576 -0.000002 0.000001 -0.000000 0.000001 -0.000000 -0.000000 0.000005 0.000001 0.000000 -0.038000 -0.085200 0.016200 0.000001 -0.000001 0.000000 -0.000000 -0.000000 -0.000000 -1.436409 0.516487 -6.429155 14.197259 -0.277547 -3.047284 48.736029 1.662790 -17.029890 0.000000 0.000002 -0.000003 0.000005 -0.000000 0.000000 0.000002 -0.000001 0.000001 0.038000 -0.085200 0.016200 0.000003 0.000004 -0.000005 
